PathFileType	4	(x/y/z)	S10_M20_T34
DataRate	CameraRate	NumFrames	NumMarkers	Units	OrigDataRate	OrigDataStartFrame	OrigNumFrames
240	240	8	51	mm	240	67	534
Frame#	Time	Sternum			R.Acromium			L.Acromium			Top.Head			R.ASIS			L.ASIS			R.PSIS			L.PSIS			R.Great.Tro			L.Great.Tro			R.Iliac.Crest			L.Iliac.Crest			V.Sacral			R.Thigh.Upper.Post			R.Thigh.Lower.Ant			R.Thigh.Lower.Post			R.Thigh.Upper.Ant			R.Knee.Lat			R.Knee.Med			R.Shank.Upper.Post			R.Shank.Lower.Ant			R.Shank.Lower.Post			R.Shank.Upper.Ant			R.Ankle.Lat			R.Ankle.Med			R.Heel.Upper			R.Heel.Med			R.Heel.Lat			R.Toe.Lat			R.Toe.Med			R.Toe.Tip			L.Thigh.Upper.Post			L.Thigh.Lower.Ant			L.Thigh.Lower.Post			L.Thigh.Upper.Ant			L.Knee.Lat			L.Knee.Med			L.Shank.Upper.Post			L.Shank.Lower.Ant			L.Shank.Lower.Post			L.Shank.Upper.Ant			L.Ankle.Lat			L.Ankle.Med			L.Heel.Upper			L.Heel.Med			L.Heel.Lat			L.Toe.Lat			L.Toe.Med			L.Toe.Tip			Cervical.Spine			Back			
		X1	Y1	Z1	X2	Y2	Z2	X3	Y3	Z3	X4	Y4	Z4	X5	Y5	Z5	X6	Y6	Z6	X7	Y7	Z7	X8	Y8	Z8	X9	Y9	Z9	X10	Y10	Z10	X11	Y11	Z11	X12	Y12	Z12	X13	Y13	Z13	X14	Y14	Z14	X15	Y15	Z15	X16	Y16	Z16	X17	Y17	Z17	X18	Y18	Z18	X19	Y19	Z19	X20	Y20	Z20	X21	Y21	Z21	X22	Y22	Z22	X23	Y23	Z23	X24	Y24	Z24	X25	Y25	Z25	X26	Y26	Z26	X27	Y27	Z27	X28	Y28	Z28	X29	Y29	Z29	X30	Y30	Z30	X31	Y31	Z31	X32	Y32	Z32	X33	Y33	Z33	X34	Y34	Z34	X35	Y35	Z35	X36	Y36	Z36	X37	Y37	Z37	X38	Y38	Z38	X39	Y39	Z39	X40	Y40	Z40	X41	Y41	Z41	X42	Y42	Z42	X43	Y43	Z43	X44	Y44	Z44	X45	Y45	Z45	X46	Y46	Z46	X47	Y47	Z47	X48	Y48	Z48	X49	Y49	Z49	X50	Y50	Z50	X51	Y51	Z51	

67	0.275	-424.71	1252.8	270.47	-531.39	1416.1	423.69	-571.34	1418.2	120.69	-610.45	1719.1	291.52	-479.63	968.54	392.62	-473.74	1011.6	163.7	-677.99	1003.2	299.84	-671.32	1019.4	221.58	-562.09	879	450.66	-523.84	957.48	98.885	-572.32	1048.9	439.13	-543.91	1087	137.29	-698.18	977.58	259.54	-540.57	674.8	453.53	-479.34	597.22	427.41	-545.1	585.63	447.4	-471.61	689.23	431.7	-552.78	462.37	418.62	-549.22	456.6	284.53	-759.99	387.45	429.5	-780.5	298.58	417.69	-822.66	346.64	425.99	-712.14	335.06	419.98	-908.7	277.37	412.87	-893.23	268.45	328.64	-951.97	317.91	361.5	-977.53	307.6	333.87	-977.64	313.05	394.57	-975.69	141.9	442.6	-960.35	114.81	338.28	-937.69	59.751	381.13	-491.09	673.62	107.83	-403.07	617.08	145.77	-469.34	584.17	135.42	-418.79	702.98	120.01	-416.17	512.02	157.92	-422.62	517.01	286.07	-479.93	300.05	150.89	-416.98	211.35	173.93	-479.31	222.71	160.93	-417.25	287.94	163.58	-457.76	106.35	173.36	-452.01	112.91	261.28	-532.23	76.447	217.36	-520.53	43.025	249.72	-525.54	46.441	185.45	-348.22	41.558	149.81	-321.36	43.588	257.92	-265.45	56.333	209.94	-629.08	1472.6	292.3	-710.81	1262.2	298.04
68	0.27917	-419.83	1253.9	271.15	-527.25	1417.1	423.7	-565.06	1419.6	120.4	-604.78	1720.4	291.31	-474.84	969.93	392.4	-468.8	1012.5	163.41	-673.11	1004.5	299.22	-666.38	1020.6	220.96	-557.08	880.37	450.41	-519.34	958.18	98.524	-567.82	1050.2	438.7	-538.73	1088.1	136.9	-693.34	978.87	258.93	-532.57	676.31	453.58	-470.26	599.58	427.59	-535.87	587.06	447.53	-463.8	691.64	431.71	-541.31	463.72	418.55	-538.42	458.32	284.03	-748.2	388.53	429.05	-768.61	299.68	417.04	-810.91	347.69	425.41	-700.28	336.2	419.47	-896.94	278.42	412.04	-881.43	269.31	328.13	-941.25	318.28	360.59	-966.64	307.41	332.98	-966.72	313.1	393.73	-961.64	142.35	442.27	-946.07	115.19	337.88	-922.4	60.799	380.84	-488.4	674.08	107.57	-400.7	616.96	145.29	-467.28	584.48	135.11	-415.93	702.91	119.58	-414.64	511.89	157.51	-420.66	517.07	285.67	-479.32	300.16	150.83	-416.63	211.25	173.73	-478.96	222.85	160.91	-416.64	287.82	163.32	-457.6	106.35	173.36	-451.89	112.98	261.32	-532.19	76.486	217.38	-520.53	43.072	249.71	-525.52	46.501	185.46	-348.21	41.551	149.8	-321.35	43.516	257.94	-265.42	56.251	209.94	-624.11	1473.8	291.64	-705.92	1263.4	296.52
69	0.28333	-414.96	1255	271.84	-523.14	1418.1	423.73	-558.76	1420.9	120.12	-599.12	1721.8	291.12	-470.04	971.34	392.13	-463.91	1013.5	163.09	-668.25	1005.7	298.67	-661.47	1021.8	220.38	-552.01	881.79	450.21	-514.89	958.88	98.154	-563.3	1051.6	438.27	-533.64	1089.2	136.5	-688.51	980.16	258.39	-524.57	677.88	453.66	-461.21	602.02	427.72	-526.63	588.58	447.68	-456.05	694.1	431.65	-529.91	465.18	418.51	-527.49	460.11	283.6	-736.44	389.59	428.57	-756.69	300.74	416.41	-799.16	348.68	424.83	-688.41	337.35	418.96	-885.12	279.3	411.2	-869.59	270.02	327.63	-930.57	318.42	359.72	-955.78	306.95	332.14	-955.8	312.85	392.95	-947.27	142.57	441.9	-931.46	115.4	337.43	-906.67	61.727	380.48	-485.75	674.56	107.31	-398.37	616.85	144.83	-465.28	584.8	134.81	-413.1	702.86	119.18	-413.16	511.78	157.12	-418.82	517.11	285.25	-478.69	300.28	150.73	-416.27	211.17	173.54	-478.6	222.99	160.87	-416.03	287.72	163.08	-457.45	106.35	173.34	-451.78	113.06	261.36	-532.16	76.532	217.4	-520.53	43.123	249.7	-525.5	46.561	185.48	-348.21	41.542	149.79	-321.34	43.45	257.94	-265.39	56.171	209.94	-619.15	1475	290.97	-701.04	1264.6	295
70	0.2875	-410.1	1256.1	272.53	-519.04	1419.1	423.75	-552.46	1422.3	119.87	-593.47	1723.1	290.95	-465.22	972.78	391.82	-459.08	1014.4	162.73	-663.4	1007	298.18	-656.59	1023	219.86	-546.86	883.24	450.04	-510.49	959.58	97.775	-558.74	1052.9	437.85	-528.62	1090.2	136.09	-683.69	981.44	257.91	-516.57	679.52	453.76	-452.21	604.52	427.8	-517.39	590.18	447.85	-448.36	696.61	431.52	-518.57	466.74	418.48	-516.4	461.95	283.25	-724.72	390.62	428.08	-744.72	301.75	415.79	-787.4	349.58	424.25	-676.54	338.5	418.46	-873.24	280	410.38	-857.71	270.59	327.16	-919.92	318.31	358.92	-944.92	306.21	331.36	-944.89	312.31	392.23	-932.61	142.54	441.51	-916.55	115.45	336.94	-890.54	62.533	380.03	-483.13	675.06	107.05	-396.09	616.75	144.37	-463.31	585.15	134.52	-410.32	702.81	118.78	-411.71	511.69	156.72	-417.12	517.14	284.83	-478.06	300.39	150.6	-415.9	211.1	173.38	-478.23	223.13	160.8	-415.41	287.63	162.85	-457.3	106.35	173.32	-451.67	113.14	261.38	-532.15	76.585	217.41	-520.53	43.178	249.69	-525.48	46.621	185.49	-348.2	41.533	149.78	-321.34	43.392	257.94	-265.36	56.094	209.95	-614.2	1476.2	290.31	-696.18	1265.8	293.5
71	0.29167	-405.24	1257.3	273.22	-514.97	1420.1	423.77	-546.15	1423.7	119.64	-587.82	1724.4	290.8	-460.4	974.24	391.47	-454.3	1015.4	162.33	-658.56	1008.3	297.76	-651.73	1024.2	219.4	-541.64	884.72	449.9	-506.11	960.27	97.386	-554.14	1054.3	437.44	-523.68	1091.3	135.66	-678.89	982.7	257.51	-508.57	681.22	453.89	-443.24	607.1	427.83	-508.15	591.86	448.04	-440.72	699.17	431.32	-507.3	468.41	418.48	-505.16	463.85	282.98	-713.04	391.62	427.58	-732.72	302.7	415.2	-775.66	350.4	423.68	-664.66	339.66	417.98	-861.3	280.5	409.57	-845.79	271.01	326.72	-909.28	317.94	358.17	-934.06	305.21	330.64	-933.95	311.47	391.56	-917.67	142.27	441.09	-901.36	115.35	336.4	-874.05	63.219	379.5	-480.55	675.58	106.8	-393.87	616.64	143.92	-461.39	585.52	134.23	-407.55	702.76	118.4	-410.29	511.62	156.33	-415.55	517.16	284.41	-477.4	300.5	150.44	-415.53	211.04	173.23	-477.84	223.27	160.7	-414.79	287.54	162.64	-457.17	106.35	173.29	-451.58	113.23	261.4	-532.14	76.646	217.42	-520.55	43.236	249.68	-525.46	46.681	185.49	-348.19	41.524	149.77	-321.33	43.34	257.94	-265.33	56.019	209.95	-609.26	1477.4	289.65	-691.31	1267	292
72	0.29583	-400.39	1258.4	273.89	-510.9	1421.1	423.8	-539.83	1425	119.43	-582.19	1725.7	290.66	-455.58	975.73	391.07	-449.55	1016.3	161.89	-653.73	1009.5	297.38	-646.9	1025.3	218.97	-536.36	886.24	449.78	-501.75	960.96	96.989	-549.51	1055.7	437.02	-518.81	1092.3	135.23	-674.1	983.95	257.17	-500.58	682.98	454.02	-434.3	609.74	427.82	-498.9	593.61	448.25	-433.12	701.78	431.05	-496.11	470.16	418.5	-493.76	465.8	282.81	-701.41	392.56	427.05	-720.7	303.58	414.63	-763.92	351.12	423.11	-652.79	340.81	417.52	-849.3	280.81	408.78	-833.83	271.27	326.29	-898.63	317.31	357.48	-923.16	303.92	329.98	-922.99	310.32	390.96	-902.49	141.78	440.64	-885.92	115.09	335.82	-857.24	63.789	378.91	-478	676.11	106.56	-391.68	616.54	143.48	-459.51	585.9	133.95	-404.82	702.72	118.02	-408.89	511.56	155.95	-414.1	517.16	283.99	-476.74	300.61	150.25	-415.15	210.99	173.1	-477.43	223.4	160.59	-414.16	287.46	162.45	-457.04	106.36	173.26	-451.5	113.33	261.41	-532.15	76.711	217.43	-520.56	43.296	249.67	-525.44	46.74	185.5	-348.18	41.514	149.76	-321.32	43.294	257.94	-265.3	55.947	209.95	-604.33	1478.5	288.99	-686.46	1268.2	290.52
73	0.3	-395.54	1259.5	274.54	-506.85	1422	423.82	-533.51	1426.4	119.25	-576.56	1727	290.54	-450.74	977.23	390.63	-444.85	1017.3	161.42	-648.91	1010.8	297.07	-642.09	1026.4	218.6	-531.01	887.79	449.69	-497.39	961.64	96.584	-544.85	1057.2	436.62	-514.01	1093.3	134.77	-669.32	985.18	256.89	-492.59	684.79	454.17	-425.4	612.46	427.76	-489.65	595.45	448.49	-425.58	704.43	430.72	-485	472.01	418.54	-482.22	467.8	282.72	-689.83	393.46	426.52	-708.65	304.39	414.1	-752.19	351.75	422.55	-640.93	341.95	417.09	-837.23	280.91	408.01	-821.82	271.37	325.9	-887.96	316.41	356.86	-912.22	302.37	329.37	-911.98	308.88	390.41	-887.09	141.08	440.16	-870.24	114.69	335.21	-840.14	64.244	378.25	-475.48	676.65	106.33	-389.54	616.43	143.05	-457.67	586.3	133.67	-402.1	702.67	117.65	-407.52	511.53	155.57	-412.77	517.13	283.58	-476.06	300.71	150.04	-414.76	210.94	172.99	-477	223.54	160.45	-413.53	287.38	162.27	-456.93	106.36	173.21	-451.43	113.44	261.41	-532.16	76.781	217.44	-520.58	43.358	249.66	-525.42	46.799	185.5	-348.17	41.504	149.75	-321.31	43.253	257.94	-265.28	55.878	209.96	-599.41	1479.7	288.33	-681.61	1269.4	289.05
74	0.30417	-390.7	1260.6	275.17	-502.81	1423	423.85	-527.2	1427.7	119.08	-570.95	1728.3	290.44	-445.9	978.74	390.16	-440.18	1018.2	160.91	-644.11	1012	296.8	-637.29	1027.5	218.26	-525.61	889.36	449.62	-493.04	962.3	96.174	-540.15	1058.7	436.22	-509.28	1094.3	134.31	-664.55	986.38	256.66	-484.6	686.66	454.33	-416.52	615.23	427.67	-480.4	597.36	448.73	-418.08	707.12	430.34	-473.98	473.94	418.59	-470.59	469.86	282.72	-678.31	394.3	425.98	-696.57	305.12	413.61	-740.46	352.26	422.01	-629.08	343.08	416.7	-825.1	280.79	407.27	-809.76	271.28	325.53	-877.25	315.23	356.31	-901.22	300.54	328.83	-900.92	307.13	389.93	-871.48	140.16	439.65	-854.34	114.16	334.56	-822.78	64.589	377.52	-472.99	677.21	106.1	-387.43	616.32	142.63	-455.87	586.71	133.4	-399.41	702.63	117.28	-406.18	511.5	155.2	-411.54	517.1	283.17	-475.37	300.81	149.8	-414.37	210.91	172.9	-476.56	223.67	160.3	-412.89	287.31	162.11	-456.82	106.37	173.17	-451.36	113.55	261.42	-532.18	76.854	217.44	-520.6	43.422	249.65	-525.41	46.858	185.51	-348.16	41.495	149.75	-321.31	43.216	257.93	-265.25	55.811	209.97	-594.49	1480.9	287.69	-676.76	1270.6	287.61
